<?xml version="1.0" standalone="no"?>
<!DOCTYPE svg PUBLIC "-//W3C//DTD SVG 20010904//EN"
 "http://www.w3.org/TR/2001/REC-SVG-20010904/DTD/svg10.dtd">
<svg version="1.0" xmlns="http://www.w3.org/2000/svg"
 width="182.000000pt" height="182.000000pt" viewBox="0 0 182.000000 182.000000"
 preserveAspectRatio="xMidYMid meet">
<metadata>
Created by potrace 1.14, written by Peter Selinger 2001-2017
</metadata>
<g transform="translate(0.000000,182.000000) scale(0.100000,-0.100000)"
fill="#000000" stroke="none">
<path d="M0 1465 l0 -355 290 0 290 0 0 355 0 355 -290 0 -290 0 0 -355z m130
252 c0 -2 -16 -18 -35 -37 -26 -25 -35 -30 -35 -17 0 21 35 57 55 57 8 0 15
-1 15 -3z m350 -4 c0 -10 -62 -73 -72 -73 -16 0 -7 22 21 51 28 27 51 38 51
22z m-320 -11 c0 -4 -22 -30 -50 -57 -40 -39 -50 -45 -50 -30 0 11 19 37 42
57 43 37 58 45 58 30z m360 -255 c0 -210 -2 -243 -17 -259 -25 -28 -55 -22
-94 20 -50 52 -179 218 -179 229 0 5 17 26 38 46 l39 38 44 -57 44 -57 3 104
2 104 48 46 c34 34 50 44 60 37 9 -8 12 -71 12 -251z m-391 166 c-48 -47 -65
-59 -68 -47 -3 19 108 125 123 117 4 -3 -21 -34 -55 -70z m10 -39 c-41 -41
-76 -69 -78 -63 -5 15 130 150 142 142 5 -3 -24 -39 -64 -79z m91 48 c0 -4
-38 -45 -85 -92 -47 -47 -85 -78 -85 -70 0 8 35 50 77 92 73 73 93 89 93 70z
m20 -30 c0 -4 -43 -50 -95 -102 -52 -52 -95 -88 -95 -80 0 15 168 190 182 190
5 0 8 -3 8 -8z m20 -37 c0 -8 -4 -15 -8 -15 -5 0 -51 -43 -103 -95 -51 -52
-96 -90 -98 -84 -3 11 187 209 201 209 5 0 8 -7 8 -15z m-17 -69 c-54 -49 -63
-32 -11 21 31 32 44 40 46 28 2 -8 -14 -31 -35 -49z m-129 -127 c-32 -33 -61
-54 -63 -48 -2 6 23 38 55 70 32 33 61 54 63 48 2 -6 -23 -38 -55 -70z m35
-171 c-28 -23 -54 -23 -79 2 -37 37 -27 78 38 143 l57 58 3 -93 c3 -85 1 -94
-19 -110z"/>
<path d="M830 1087 c-52 -17 -114 -84 -135 -147 -34 -103 -8 -245 58 -317 27
-30 38 -29 72 7 39 40 25 50 -16 11 -43 -41 -51 -40 -11 2 l33 34 -20 44 c-23
49 -27 132 -10 193 32 117 169 138 234 36 27 -43 31 -43 75 -6 20 17 19 14 -4
-12 -21 -23 -25 -32 -14 -32 8 0 23 9 32 19 38 42 -16 132 -101 168 -38 15
-143 16 -193 0z"/>
<path d="M1062 757 c-12 -13 -22 -30 -22 -38 1 -10 5 -8 18 6 9 11 26 26 37
34 11 8 -27 -33 -84 -92 l-104 -106 34 1 c29 0 46 12 117 81 45 45 82 87 82
94 0 15 -28 43 -44 43 -7 0 -22 -10 -34 -23z m-17 -97 c-49 -49 -90 -88 -92
-86 -4 3 169 176 177 176 2 0 -36 -40 -85 -90z"/>
<path d="M1060 630 c-36 -33 -59 -60 -52 -60 16 0 129 106 122 114 -3 3 -35
-22 -70 -54z"/>
<path d="M839 624 c-28 -29 -31 -36 -19 -44 25 -16 34 -12 75 30 50 51 25 53
-30 3 l-40 -38 33 36 c44 47 26 59 -19 13z"/>
<path d="M955 650 c-28 -11 -90 -78 -81 -87 3 -4 30 16 59 45 28 29 50 52 47
51 -3 0 -14 -4 -25 -9z"/>
<path d="M1449 553 c-15 -2 -51 -18 -80 -36 -43 -26 -59 -44 -84 -91 -26 -52
-30 -70 -29 -140 0 -87 26 -167 65 -202 19 -17 21 -16 57 17 l37 34 -35 -38
c-29 -31 -32 -39 -20 -47 8 -5 20 -10 25 -10 15 1 78 60 71 68 -4 3 -21 -9
-39 -26 -44 -43 -60 -41 -19 1 30 30 31 35 17 47 -54 44 -69 189 -28 266 52
97 168 97 227 0 l22 -36 37 38 37 38 -22 34 c-40 59 -152 98 -239 83z"/>
<path d="M1675 380 c-20 -21 -24 -30 -14 -30 15 0 59 40 59 53 0 15 -17 6 -45
-23z"/>
<path d="M1643 218 c-37 -42 -37 -54 0 -19 21 19 37 36 37 38 0 10 -19 0 -37
-19z"/>
<path d="M1587 123 c-59 -57 -107 -106 -107 -109 0 -15 28 8 125 99 60 57 104
106 99 109 -5 4 -58 -41 -117 -99z"/>
<path d="M1610 105 c-52 -52 -88 -95 -80 -95 15 0 190 168 190 183 0 18 -22 1
-110 -88z"/>
<path d="M1635 90 c-38 -38 -64 -70 -56 -70 19 0 135 114 130 129 -2 6 -35
-20 -74 -59z"/>
<path d="M1525 100 c-28 -11 -89 -77 -78 -83 6 -4 32 16 58 43 27 28 47 50 45
49 -3 0 -14 -4 -25 -9z"/>
<path d="M1440 65 c-18 -19 -30 -38 -26 -42 3 -4 26 12 49 35 26 26 36 42 26
42 -8 0 -30 -16 -49 -35z"/>
</g>
</svg>
